# xmcd CD database file generated by LOLA_Freedb v0.9beta0
# 
# Track frame offsets:
#      150
#      17029
#      30721
#      49004
#      64506
#      81523
#      100792
#      118585
#      130735
#      146082
#      162175
#      181346
# 
# Disc length: 2849 seconds
# 
# Revision: 0 
# Processed by: cddbd v1.5.2PL0 Copyright (c) Steve Scherf et al.
# Submitted via: LOLA_Freedb v0.9beta0
# 
DISCID=9c0b1f0c
DTITLE=Jay Hollis - Jay Hollis
DYEAR=2008
DGENRE=
TTITLE0=Jay Hollis - Devil Ain't Got A Prayer
TTITLE1=Jay Hollis - Hold Me Down
TTITLE2=Jay Hollis - I Want To Live
TTITLE3=Jay Hollis - Second Chance
TTITLE4=Jay Hollis - Honky Tonk Hall Of Fame
TTITLE5=Jay Hollis - Frosen Roses
TTITLE6=Jay Hollis - The Rain
TTITLE7=Jay Hollis - Six Pack Pretty
TTITLE8=Jay Hollis - Hypnotized
TTITLE9=Jay Hollis - Sacrifice
TTITLE10=Jay Hollis - Again Tonight
TTITLE11=Jay Hollis - One More Day
EXTD=
EXTT0=
EXTT1=
EXTT2=
EXTT3=
EXTT4=
EXTT5=
EXTT6=
EXTT7=
EXTT8=
EXTT9=
EXTT10=
EXTT11=
PLAYORDER=
